HIERARCHY
ROOT Hips
{
  OFFSET 150.432 88.1888 27.0678
  CHANNELS 6 Xposition Yposition Zposition Zrotation Xrotation Yrotation
  JOINT RightUpLeg
  {
    OFFSET -9.25679 -1.50405 0.000749919
    CHANNELS 3 Zrotation Xrotation Yrotation
    JOINT RightLeg
    {
      OFFSET 0.0460649 -41.9017 0.109432
      CHANNELS 3 Zrotation Xrotation Yrotation
      JOINT RightFoot
      {
        OFFSET 1.7988 -41.6468 0.413135
        CHANNELS 3 Zrotation Xrotation Yrotation
        End Site
        {
          OFFSET 0 -7.69 17.5
        }
      }
    }
  }
  JOINT LeftUpLeg
  {
    OFFSET 9.37007 -1.70178 -0.0772456
    CHANNELS 3 Zrotation Xrotation Yrotation
    JOINT LeftLeg
    {
      OFFSET 0.225295 -41.8622 -0.102498
      CHANNELS 3 Zrotation Xrotation Yrotation
      JOINT LeftFoot
      {
        OFFSET -2.07126 -41.2817 -1.22305
        CHANNELS 3 Zrotation Xrotation Yrotation
        End Site
        {
          OFFSET 0 -7.69 17.5
        }
      }
    }
  }
  JOINT Spine
  {
    OFFSET 0.0614897 14.2979 0.0172263
    CHANNELS 3 Zrotation Xrotation Yrotation
    JOINT Spine1
    {
      OFFSET 0.0253415 9.71429 0.00919728
      CHANNELS 3 Zrotation Xrotation Yrotation
      JOINT Spine2
      {
        OFFSET -0.0163533 10.1275 0.00641818
        CHANNELS 3 Zrotation Xrotation Yrotation
        JOINT Spine3
        {
          OFFSET 0.00964153 9.71178 0.018187
          CHANNELS 3 Zrotation Xrotation Yrotation
          JOINT Neck
          {
            OFFSET -0.0402277 10.3749 0.0917408
            CHANNELS 3 Zrotation Xrotation Yrotation
            JOINT Head
            {
              OFFSET 0.0121048 9.49481 0.108971
              CHANNELS 3 Zrotation Xrotation Yrotation
              End Site
              {
                OFFSET 0 15.95 0
              }
            }
          }
          JOINT RightShoulder
          {
            OFFSET -3.18208 6.946 0.015457
            CHANNELS 3 Zrotation Xrotation Yrotation
            JOINT RightArm
            {
              OFFSET -12.7708 0.0386499 -0.00729584
              CHANNELS 3 Zrotation Xrotation Yrotation
              JOINT RightForeArm
              {
                OFFSET -26.422 0.00272702 0.0331834
                CHANNELS 3 Zrotation Xrotation Yrotation
                JOINT RightHand
                {
                  OFFSET -25.9963 -0.0318335 0.00677283
                  CHANNELS 3 Zrotation Xrotation Yrotation
                  JOINT RightHandThumb1
                  {
                    OFFSET -2.48905 0.190105 3.12053
                    CHANNELS 3 Zrotation Xrotation Yrotation
                    JOINT RightHandThumb2
                    {
                      OFFSET -3.68274 0 0
                      CHANNELS 3 Zrotation Xrotation Yrotation
                      JOINT RightHandThumb3
                      {
                        OFFSET -2.55832 0 0
                        CHANNELS 3 Zrotation Xrotation Yrotation
                        End Site
                        {
                          OFFSET -2.194 0 0
                        }
                      }
                    }
                  }
                  JOINT RightInHandIndex
                  {
                    OFFSET -3.22368 0.508421 1.97842
                    CHANNELS 3 Zrotation Xrotation Yrotation
                    JOINT RightHandIndex1
                    {
                      OFFSET -5.21684 -0.091368 0.999158
                      CHANNELS 3 Zrotation Xrotation Yrotation
                      JOINT RightHandIndex2
                      {
                        OFFSET -3.61937 0 0
                        CHANNELS 3 Zrotation Xrotation Yrotation
                        JOINT RightHandIndex3
                        {
                          OFFSET -2.0521 0 0
                          CHANNELS 3 Zrotation Xrotation Yrotation
                          End Site
                          {
                            OFFSET -1.805 0 0
                          }
                        }
                      }
                    }
                  }
                  JOINT RightInHandMiddle
                  {
                    OFFSET -3.38211 0.517263 0.756737
                    CHANNELS 3 Zrotation Xrotation Yrotation
                    JOINT RightHandMiddle1
                    {
                      OFFSET -5.17411 -0.084 0.313895
                      CHANNELS 3 Zrotation Xrotation Yrotation
                      JOINT RightHandMiddle2
                      {
                        OFFSET -3.94947 0 0
                        CHANNELS 3 Zrotation Xrotation Yrotation
                        JOINT RightHandMiddle3
                        {
                          OFFSET -2.47579 0 0
                          CHANNELS 3 Zrotation Xrotation Yrotation
                          End Site
                          {
                            OFFSET -1.975 0 0
                          }
                        }
                      }
                    }
                  }
                  JOINT RightInHandRing
                  {
                    OFFSET -3.36516 0.537895 -0.128947
                    CHANNELS 3 Zrotation Xrotation Yrotation
                    JOINT RightHandRing1
                    {
                      OFFSET -4.63474 -0.022105 -0.478947
                      CHANNELS 3 Zrotation Xrotation Yrotation
                      JOINT RightHandRing2
                      {
                        OFFSET -3.44238 0 0
                        CHANNELS 3 Zrotation Xrotation Yrotation
                        JOINT RightHandRing3
                        {
                          OFFSET -2.3881 0 0
                          CHANNELS 3 Zrotation Xrotation Yrotation
                          End Site
                          {
                            OFFSET -1.857 0 0
                          }
                        }
                      }
                    }
                  }
                  JOINT RightInHandPinky
                  {
                    OFFSET -3.16105 0.469368 -1.20179
                    CHANNELS 3 Zrotation Xrotation Yrotation
                    JOINT RightHandPinky1
                    {
                      OFFSET -4.14105 -0.022105 -1.09053
                      CHANNELS 3 Zrotation Xrotation Yrotation
                      JOINT RightHandPinky2
                      {
                        OFFSET -2.75653 0 0
                        CHANNELS 3 Zrotation Xrotation Yrotation
                        JOINT RightHandPinky3
                        {
                          OFFSET -1.74189 0 0
                          CHANNELS 3 Zrotation Xrotation Yrotation
                          End Site
                          {
                            OFFSET -1.645 0 0
                          }
                        }
                      }
                    }
                  }
                }
              }
            }
          }
          JOINT LeftShoulder
          {
            OFFSET 3.18966 6.92856 0.062398
            CHANNELS 3 Zrotation Xrotation Yrotation
            JOINT LeftArm
            {
              OFFSET 12.7601 -0.0509086 0.00275124
              CHANNELS 3 Zrotation Xrotation Yrotation
              JOINT LeftForeArm
              {
                OFFSET 26.4828 -0.0571091 -0.0285564
                CHANNELS 3 Zrotation Xrotation Yrotation
                JOINT LeftHand
                {
                  OFFSET 25.9994 -0.0171136 -0.0547064
                  CHANNELS 3 Zrotation Xrotation Yrotation
                  JOINT LeftHandThumb1
                  {
                    OFFSET 2.48905 0.190105 3.12053
                    CHANNELS 3 Zrotation Xrotation Yrotation
                    JOINT LeftHandThumb2
                    {
                      OFFSET 3.68274 0 0
                      CHANNELS 3 Zrotation Xrotation Yrotation
                      JOINT LeftHandThumb3
                      {
                        OFFSET 2.55832 0 0
                        CHANNELS 3 Zrotation Xrotation Yrotation
                        End Site
                        {
                          OFFSET 2.194 0 0
                        }
                      }
                    }
                  }
                  JOINT LeftInHandIndex
                  {
                    OFFSET 3.22368 0.508421 1.97842
                    CHANNELS 3 Zrotation Xrotation Yrotation
                    JOINT LeftHandIndex1
                    {
                      OFFSET 5.21684 -0.091368 0.999158
                      CHANNELS 3 Zrotation Xrotation Yrotation
                      JOINT LeftHandIndex2
                      {
                        OFFSET 3.61937 0 0
                        CHANNELS 3 Zrotation Xrotation Yrotation
                        JOINT LeftHandIndex3
                        {
                          OFFSET 2.0521 0 0
                          CHANNELS 3 Zrotation Xrotation Yrotation
                          End Site
                          {
                            OFFSET 1.805 0 0
                          }
                        }
                      }
                    }
                  }
                  JOINT LeftInHandMiddle
                  {
                    OFFSET 3.38211 0.517263 0.756737
                    CHANNELS 3 Zrotation Xrotation Yrotation
                    JOINT LeftHandMiddle1
                    {
                      OFFSET 5.17411 -0.084 0.313895
                      CHANNELS 3 Zrotation Xrotation Yrotation
                      JOINT LeftHandMiddle2
                      {
                        OFFSET 3.94947 0 0
                        CHANNELS 3 Zrotation Xrotation Yrotation
                        JOINT LeftHandMiddle3
                        {
                          OFFSET 2.47579 0 0
                          CHANNELS 3 Zrotation Xrotation Yrotation
                          End Site
                          {
                            OFFSET 1.975 0 0
                          }
                        }
                      }
                    }
                  }
                  JOINT LeftInHandRing
                  {
                    OFFSET 3.36516 0.537895 -0.128947
                    CHANNELS 3 Zrotation Xrotation Yrotation
                    JOINT LeftHandRing1
                    {
                      OFFSET 4.63474 -0.022105 -0.478947
                      CHANNELS 3 Zrotation Xrotation Yrotation
                      JOINT LeftHandRing2
                      {
                        OFFSET 3.44238 0 0
                        CHANNELS 3 Zrotation Xrotation Yrotation
                        JOINT LeftHandRing3
                        {
                          OFFSET 2.3881 0 0
                          CHANNELS 3 Zrotation Xrotation Yrotation
                          End Site
                          {
                            OFFSET 1.857 0 0
                          }
                        }
                      }
                    }
                  }
                  JOINT LeftInHandPinky
                  {
                    OFFSET 3.16105 0.469368 -1.20179
                    CHANNELS 3 Zrotation Xrotation Yrotation
                    JOINT LeftHandPinky1
                    {
                      OFFSET 4.14105 -0.022105 -1.09053
                      CHANNELS 3 Zrotation Xrotation Yrotation
                      JOINT LeftHandPinky2
                      {
                        OFFSET 2.75653 0 0
                        CHANNELS 3 Zrotation Xrotation Yrotation
                        JOINT LeftHandPinky3
                        {
                          OFFSET 1.74189 0 0
                          CHANNELS 3 Zrotation Xrotation Yrotation
                          End Site
                          {
                            OFFSET 1.645 0 0
                          }
                        }
                      }
                    }
                  }
                }
              }
            }
          }
        }
      }
    }
  }
}
MOTION
Frames: 3
Frame Time: 0.00833333
3.000053502002814412e+02 9.078513442848604870e-03 -2.944608464849713184e-02 2.724633801214939796e-02 2.362783597202853733e-02 1.804360462045979385e-01 -2.583859349753959700e-01 -1.632950075195305217e-02 -2.818643504977318970e-01 1.222085340408289936e-02 4.358800384995438482e-02 -3.659359649619620819e-02 -2.987834765840178056e-02 -4.192931771546015013e-02 -2.263869410067767540e-02 -1.268521214521223517e-01 -6.884061164677267308e-02 -1.534664939045600474e-01 1.575912018721222635e-02 -8.682699311825047006e-02 -3.902747605274252407e-02 9.390953202039326736e-03 4.891703341432219326e-02 -1.328572679248819256e-02 -4.632243297879021227e-02 2.688013256345139421e-02 9.751795517314233719e-02 -9.783004999382357778e-03 1.598725267491505134e-02 2.231681919917968479e-02 -1.758086806965167281e-02 3.151027340055346376e-02 3.406388462301610659e-02 7.553809680681405209e-03 1.286221157723342568e-03 -1.051779522665508698e-02 1.564889871374160191e-02 1.089381527864831866e-03 -5.314409911695319039e-02 1.344351189494952803e-01 2.329062174369411417e-02 -1.569934422308706945e-01 9.580829516728746331e-02 -5.990298271139446462e-02 -9.544394731314249924e-02 9.964297834062511017e-01 -1.357933299896774582e+00 -1.349124901683267153e+00 1.028169258688908405e+00 2.228760742509281023e+00 -1.574938635448954294e+00 -5.648857392135110678e-02 4.405460428220011049e-01 9.586747567722756491e-01 0.000000000000000000e+00 0.000000000000000000e+00 0.000000000000000000e+00 1.546812462053305160e-14 -2.949924373314707559e-15 0.000000000000000000e+00 -7.674120601802878528e-15 8.237862365746295827e-16 0.000000000000000000e+00 -1.885559123705780575e-15 -1.287259208139974139e-15 -3.432849020418177866e-15 0.000000000000000000e+00 0.000000000000000000e+00 0.000000000000000000e+00 0.000000000000000000e+00 -8.935422867827958104e-15 -2.056216357552062825e-14 0.000000000000000000e+00 -6.281554626765751972e-15 -1.200732438874810736e-14 -1.885559123705780575e-15 -1.287259208139974139e-15 -3.432849020418177866e-15 0.000000000000000000e+00 -2.552597096857571631e-15 -1.941067086209650688e-14 0.000000000000000000e+00 -3.045423489784113477e-15 -2.056497651822816454e-14 0.000000000000000000e+00 -9.813790362097576808e-15 -1.474151535756670866e-14 -1.885559123705780575e-15 -1.287259208139974139e-15 -3.432849020418177866e-15 0.000000000000000000e+00 0.000000000000000000e+00 0.000000000000000000e+00 0.000000000000000000e+00 4.006655017607620367e-15 -1.145505709691383665e-14 0.000000000000000000e+00 -1.295096026050648546e-15 -3.383403212591019883e-15 -1.885559123705780575e-15 -1.287259208139974139e-15 -3.432849020418177866e-15 0.000000000000000000e+00 0.000000000000000000e+00 0.000000000000000000e+00 0.000000000000000000e+00 -5.375336764483285937e-15 -9.538320587669511458e-15 0.000000000000000000e+00 -1.873979301931914698e-15 -2.482691024063758116e-15 3.146511786515212607e-03 1.304608360743238042e-02 1.813482538927028292e-02 -6.661003644739568741e-02 -4.614632099440237056e-02 1.657492148660199283e-01 4.140212115358510303e+00 7.493485727973289157e-01 2.866158237261736907e+00 -1.633750467012834995e-01 -1.589383446098460606e+00 5.804693891323591259e-01 0.000000000000000000e+00 0.000000000000000000e+00 0.000000000000000000e+00 1.467320209892901985e-15 -4.152260491324520395e-15 0.000000000000000000e+00 3.077248171186956399e-15 1.016510600659372460e-15 0.000000000000000000e+00 3.942892723370563587e-15 -3.539574581960204974e-15 -4.302561830273443557e-16 0.000000000000000000e+00 0.000000000000000000e+00 0.000000000000000000e+00 0.000000000000000000e+00 -5.721530620434976713e-15 4.687994200291077754e-15 0.000000000000000000e+00 2.487087558441484976e-16 -5.250864183774181474e-15 3.942892723370563587e-15 -3.539574581960204974e-15 -4.302561830273443557e-16 0.000000000000000000e+00 -2.155713190828385100e-15 3.214501080661719280e-15 0.000000000000000000e+00 4.566808698946946409e-15 -1.685725236437197236e-15 0.000000000000000000e+00 1.864594022717495517e-15 4.371419097639084666e-16 3.942892723370563587e-15 -3.539574581960204974e-15 -4.302561830273443557e-16 0.000000000000000000e+00 0.000000000000000000e+00 0.000000000000000000e+00 0.000000000000000000e+00 4.259657073372452958e-15 1.036429809832086219e-15 0.000000000000000000e+00 -2.227052334682630355e-15 -4.270562814898155497e-16 3.942892723370563587e-15 -3.539574581960204974e-15 -4.302561830273443557e-16 0.000000000000000000e+00 0.000000000000000000e+00 0.000000000000000000e+00 0.000000000000000000e+00 -4.531178159972710083e-15 1.765277990958285083e-15 0.000000000000000000e+00 7.570854833282297648e-16 -3.727073620532758173e-15
3.000035549696108887e+02 7.069157159861243558e-03 -1.657563541347417332e-02 1.695700507070565036e-02 1.788075325584171163e-02 1.440594499039108689e-01 -2.173843811499572842e-01 -1.275626349021971757e-02 -2.464380938265978149e-01 -5.378072446823203671e-03 2.831841039544632718e-02 -3.046717810368080454e-02 -1.534184498347825401e-02 -2.734503231088212735e-02 2.647572822500869009e-03 -1.161378444562570639e-01 -6.078119573397008230e-02 -1.345020146804917494e-01 2.403214887165725649e-02 -6.990053135343085589e-02 -4.875562148902305021e-02 4.189873685377992416e-03 3.696321649813830851e-02 8.606059765897561623e-03 -3.883498568457974948e-02 2.829253078543095268e-02 9.060487738449965467e-02 -7.948661543680613645e-03 1.578919894886185796e-02 2.110419190417129470e-02 -1.430160591737770701e-02 3.005269931880063389e-02 3.242565402155980769e-02 6.361773189095694218e-03 5.324345747688311948e-04 -1.017740006955508182e-02 1.219279248439884313e-02 3.901211553477713229e-04 -3.987731738162324235e-02 1.136069819386396340e-01 2.427755280738103441e-02 -1.616113209333982781e-01 5.935583668813782660e-02 -4.887589802997939492e-02 -3.735471537177008361e-02 8.170570812577437891e-01 -1.176800658293479129e+00 -1.002135331926125472e+00 9.855971230521145543e-01 1.023530608162109168e+00 -6.988351751573634862e-01 -1.318599563035600108e-01 1.144910277671916443e+00 2.613556546603507114e-01 0.000000000000000000e+00 0.000000000000000000e+00 0.000000000000000000e+00 1.440006277125586364e-14 -3.814836176474731462e-15 0.000000000000000000e+00 -5.909632192672960658e-15 -8.960956385296962970e-16 0.000000000000000000e+00 -2.606935313558916955e-15 -1.549676534431078496e-16 -2.465274106041748386e-15 0.000000000000000000e+00 0.000000000000000000e+00 0.000000000000000000e+00 0.000000000000000000e+00 -7.265382769732776554e-15 -1.582986900574294721e-14 0.000000000000000000e+00 -4.211368719790098973e-15 -9.481689843630654694e-15 -2.606935313558916955e-15 -1.549676534431078496e-16 -2.465274106041748386e-15 0.000000000000000000e+00 -1.619462384322335799e-15 -1.655904126709983644e-14 0.000000000000000000e+00 -2.050508726134387994e-15 -1.772340078913296365e-14 0.000000000000000000e+00 -8.263721709668586707e-15 -9.048543805053536253e-15 -2.606935313558916955e-15 -1.549676534431078496e-16 -2.465274106041748386e-15 0.000000000000000000e+00 0.000000000000000000e+00 0.000000000000000000e+00 0.000000000000000000e+00 2.301106680289712954e-15 -6.863957864510011674e-15 0.000000000000000000e+00 6.555229050372186742e-16 -3.101534988629437422e-15 -2.606935313558916955e-15 -1.549676534431078496e-16 -2.465274106041748386e-15 0.000000000000000000e+00 0.000000000000000000e+00 0.000000000000000000e+00 0.000000000000000000e+00 -4.050407614172423296e-15 -6.959268687722136741e-15 0.000000000000000000e+00 -1.126158804950373707e-15 -1.911014812506189981e-15 -4.800035037790187885e-03 -4.316406479699765215e-03 1.333324142034528030e-02 1.055333810615600651e-02 -4.041838923974012260e-02 7.571196174357490427e-02 3.694218838922842529e+00 5.447487780060509266e-01 2.779356859744340102e+00 3.807505894991768114e-02 -1.283072966415262250e+00 2.762040148537039386e-01 0.000000000000000000e+00 0.000000000000000000e+00 0.000000000000000000e+00 1.181231790023306442e-15 -3.373816420524414533e-15 0.000000000000000000e+00 3.405066500314820748e-15 8.703384542428976884e-16 0.000000000000000000e+00 3.004070649253557529e-15 -3.118154607043024663e-15 -2.800177675893778617e-16 0.000000000000000000e+00 0.000000000000000000e+00 0.000000000000000000e+00 0.000000000000000000e+00 -3.481153765840431393e-15 3.618338403393260565e-15 0.000000000000000000e+00 -1.378926018572098881e-16 -6.665028790623772409e-15 3.004070649253557529e-15 -3.118154607043024663e-15 -2.800177675893778617e-16 0.000000000000000000e+00 -2.963864912254777764e-15 3.806425391456937591e-15 0.000000000000000000e+00 3.485785079165725049e-15 1.774130319045321360e-15 0.000000000000000000e+00 2.216532672279165548e-15 -1.534387480346527989e-15 3.004070649253557529e-15 -3.118154607043024663e-15 -2.800177675893778617e-16 0.000000000000000000e+00 0.000000000000000000e+00 0.000000000000000000e+00 0.000000000000000000e+00 2.469387048939924985e-15 3.036874168983166202e-15 0.000000000000000000e+00 7.214899836437062865e-17 4.861966215883196727e-16 3.004070649253557529e-15 -3.118154607043024663e-15 -2.800177675893778617e-16 0.000000000000000000e+00 0.000000000000000000e+00 0.000000000000000000e+00 0.000000000000000000e+00 -4.406407804169843160e-15 2.954837671806533809e-15 0.000000000000000000e+00 1.290095802416063588e-15 3.528580718264700470e-16
2.999971689876045957e+02 4.010593488621577024e-03 1.299983362756592774e-03 4.435501248025821891e-04 8.610955394114399100e-03 8.558912807329106809e-02 -1.529129410637022068e-01 -8.242155429437288822e-03 -1.892699160527732405e-01 -2.997376913767365106e-02 6.278566739738504141e-03 -1.775304643798519127e-02 6.250944051059646560e-03 -5.389531245923367096e-03 3.844132949961910628e-02 -9.933381009023753427e-02 -4.506657551359792568e-02 -1.082638337196756007e-01 2.958572676832410542e-02 -4.292379381440946523e-02 -4.953155070033259111e-02 -1.891968864906889763e-03 1.590385198638866182e-02 3.390001723115924209e-02 -2.199380422080414454e-02 2.894205764910394441e-02 6.207150256982172515e-02 -4.147845430952387322e-03 1.328902548621703136e-02 1.450500455642331904e-02 -7.704515034931889300e-03 2.400150308353665371e-02 2.228373751659740165e-02 3.765279727881788545e-03 -2.518776021889756198e-04 -7.701949217703550100e-03 7.359395674237559359e-03 -3.472405018713260348e-04 -2.471448460403189579e-02 6.741056644845049017e-02 2.231572528061985874e-02 -1.272393711726400589e-01 2.351964551822069774e-02 -3.353065163936252979e-02 -2.216912318670834214e-03 6.764232877607805339e-01 -9.311549638979311760e-01 -7.024568431451961859e-01 9.350107585566178603e-01 -2.603492868026703322e-01 2.513568909469774404e-01 -2.252088469381000602e-01 1.845429412568900140e+00 -4.348302229964035592e-01 0.000000000000000000e+00 0.000000000000000000e+00 0.000000000000000000e+00 1.293608436882817963e-14 -4.875044292915974290e-15 0.000000000000000000e+00 -3.596770521206409098e-15 -2.367771303792145858e-15 0.000000000000000000e+00 -3.235463335054984504e-15 8.881611734321026685e-16 -1.533676525903824898e-15 0.000000000000000000e+00 0.000000000000000000e+00 0.000000000000000000e+00 0.000000000000000000e+00 -5.416707077995622915e-15 -1.090491047029320919e-14 0.000000000000000000e+00 -1.958708613050447501e-15 -6.587685969523435223e-15 -3.235463335054984504e-15 8.881611734321026685e-16 -1.533676525903824898e-15 0.000000000000000000e+00 -7.960565620051885648e-16 -1.281976611136868665e-14 0.000000000000000000e+00 -1.156386520240208616e-15 -1.484874321901190140e-14 0.000000000000000000e+00 -6.702599926684805443e-15 -2.802016745356277901e-15 -3.235463335054984504e-15 8.881611734321026685e-16 -1.533676525903824898e-15 0.000000000000000000e+00 0.000000000000000000e+00 0.000000000000000000e+00 0.000000000000000000e+00 6.745631913957133350e-16 -2.444315473846373237e-15 0.000000000000000000e+00 2.766341876958220151e-15 -2.255672877671741432e-15 -3.235463335054984504e-15 8.881611734321026685e-16 -1.533676525903824898e-15 0.000000000000000000e+00 0.000000000000000000e+00 0.000000000000000000e+00 0.000000000000000000e+00 -2.673658813841382593e-15 -4.562982456094826323e-15 0.000000000000000000e+00 -4.761274676745630563e-16 -1.576160214238304228e-15 -1.435306552730178722e-02 -1.556289450408285778e-02 -6.556240662476692932e-04 1.142067421098533764e-01 -1.694638835655172537e-02 -4.509584922408804708e-02 2.611695620852605426e+00 3.325556957889620469e-01 2.027860153285739653e+00 1.716785318092905743e-01 -9.488789856688754076e-01 1.579531606118161555e-02 0.000000000000000000e+00 0.000000000000000000e+00 0.000000000000000000e+00 4.589739863678509021e-16 -2.076135432534662826e-15 0.000000000000000000e+00 3.310120687911333483e-15 8.583160452405774649e-16 0.000000000000000000e+00 1.997901776092316032e-15 -1.989246719211036868e-15 -6.125407766265731544e-17 0.000000000000000000e+00 0.000000000000000000e+00 0.000000000000000000e+00 0.000000000000000000e+00 -1.339453160661220771e-15 2.484207971641612603e-15 0.000000000000000000e+00 -6.606738158787027438e-16 -7.169938867370348851e-15 1.997901776092316032e-15 -1.989246719211036868e-15 -6.125407766265731544e-17 0.000000000000000000e+00 -3.821723702747721089e-15 3.666260224784164204e-15 0.000000000000000000e+00 2.378133641269487809e-15 5.291469856068641471e-15 0.000000000000000000e+00 2.875746684260171971e-15 -3.701973190554024014e-15 1.997901776092316032e-15 -1.989246719211036868e-15 -6.125407766265731544e-17 0.000000000000000000e+00 0.000000000000000000e+00 0.000000000000000000e+00 0.000000000000000000e+00 6.450897547404571113e-16 5.263089289965644541e-15 0.000000000000000000e+00 2.385672452049809233e-15 9.609235072885947461e-16 1.997901776092316032e-15 -1.989246719211036868e-15 -6.125407766265731544e-17 0.000000000000000000e+00 0.000000000000000000e+00 0.000000000000000000e+00 0.000000000000000000e+00 -4.067922459070236303e-15 3.860054799884588074e-15 0.000000000000000000e+00 1.374914542061483722e-15 4.525163447872168131e-15
